<svg xmlns="http://www.w3.org/2000/svg" width="263" height="263" viewBox="0 0 263 263" version="1.1"><path d="M 31.063 49.882 C 29.817 52.211, 30.890 58.292, 36.116 78.500 C 44.495 110.903, 74.873 135.513, 107.217 136.101 C 113.660 136.218, 115.500 135.908, 116.842 134.482 C 117.754 133.512, 117.947 133.027, 117.271 133.405 C 115.737 134.262, 114.788 133.761, 97 122.707 C 78.440 111.173, 73.045 106.993, 63.365 96.647 C 55.534 88.277, 47.656 76.189, 39.144 59.481 C 36.897 55.071, 34.430 50.602, 33.661 49.551 C 32.300 47.690, 32.232 47.699, 31.063 49.882 M 137.226 103.579 C 138.176 104.570, 139.168 105.166, 139.431 104.903 C 139.694 104.640, 138.917 103.829, 137.705 103.100 C 135.598 101.835, 135.577 101.857, 137.226 103.579 M 205.500 137.022 C 200.113 138.103, 191.029 141.574, 185.242 144.762 C 177.765 148.881, 166.009 161.349, 161.613 169.824 C 159.523 173.851, 158.013 177.347, 158.258 177.591 C 158.502 177.835, 161.572 175.741, 165.079 172.937 C 187.230 155.230, 214.112 143.760, 246.800 138.069 L 257.500 136.206 233.500 136.213 C 220.300 136.216, 207.700 136.580, 205.500 137.022 M 3.250 170.577 C 0.776 171.851, 0 172.907, 0 175.002 C -0 178.651, 1.036 179.371, 11.552 183.031 C 23.314 187.125, 42.272 196.512, 53.500 203.803 C 58.450 207.017, 71.942 217.212, 83.482 226.458 C 104.761 243.506, 112 248.752, 112 247.124 C 112 246.629, 110.872 242.331, 109.493 237.574 C 100.390 206.160, 76.059 181.840, 44.297 172.405 C 32.657 168.948, 8.505 167.872, 3.250 170.577" stroke="none" fill="#589c17" fill-rule="evenodd"/><path d="M 130.955 102.704 C 125.912 108.448, 122.924 115.972, 122.274 124.562 C 121.875 129.837, 121.387 131.787, 120.652 131.052 C 119.076 129.476, 118 129.780, 118 131.800 C 118 134.177, 116.083 136, 113.584 136 C 111.967 136, 112.600 137.044, 116.784 141.281 L 122 146.563 122 194.302 L 122 242.041 118.139 240.071 L 114.279 238.102 113.759 226.301 C 113.323 216.421, 112.741 213.153, 110.181 206.227 C 102.733 186.077, 86.240 169.918, 67 163.921 C 50.451 158.763, 37.950 159.098, 19.500 165.195 L 9.500 168.500 22.500 169.175 C 47.161 170.455, 66.662 178.788, 83.859 195.394 C 96.774 207.865, 105.628 222.733, 110.004 239.298 C 112.149 247.418, 112.286 247.633, 116.847 250.042 C 121.393 252.443, 121.507 252.621, 121.802 257.750 L 122.105 263 127.052 263 L 132 263 132 231.197 L 132 199.394 137.750 195.302 C 150.952 185.907, 156.660 179.970, 161.111 171 C 164.330 164.515, 167.127 160.707, 172.915 154.937 C 181.053 146.823, 186.127 143.575, 197.370 139.286 C 204.424 136.596, 204.798 136.563, 232.420 136.265 C 250.884 136.065, 260.791 135.589, 261.670 134.859 C 263.754 133.130, 263.255 129.208, 260.750 127.618 C 258.888 126.436, 245.457 121.638, 219.500 112.882 C 217.167 112.095, 211.124 111.526, 205 111.516 C 187.917 111.490, 174.762 117.025, 163.162 129.122 C 156.058 136.532, 152.518 143.695, 145.994 163.867 C 140.659 180.362, 140.179 181.382, 136.438 184.171 L 132.500 187.108 132.224 154.304 C 131.915 117.625, 132.121 116.193, 138.758 108.846 C 141.692 105.598, 141.935 105, 140.316 105 C 137.907 105, 136 103.144, 136 100.800 C 136 98.069, 134.542 98.619, 130.955 102.704" stroke="none" fill="#3d7606" fill-rule="evenodd"/><path d="M 158.483 1.028 C 158.133 1.593, 155.450 8.906, 152.519 17.278 C 149.589 25.650, 146.213 34.968, 145.018 37.985 C 140.493 49.402, 137.011 65.810, 135.910 80.899 C 134.760 96.659, 135.319 101.472, 138.548 103.616 C 141.460 105.550, 144.474 103.654, 150.666 95.990 C 160.996 83.205, 167.580 65.851, 168.690 48.482 C 169.384 37.623, 167.265 3.025, 165.798 1.257 C 164.544 -0.255, 159.375 -0.417, 158.483 1.028 M 38.168 57.750 C 48.510 77.478, 55.440 88.176, 63.365 96.647 C 73.045 106.993, 78.440 111.173, 97 122.707 C 114.209 133.402, 115.777 134.256, 116.907 133.557 C 118.678 132.463, 118.979 126.137, 117.629 118.405 C 113.431 94.357, 97.649 72.888, 76.235 62.094 C 70.989 59.450, 37.392 48, 34.878 48 C 33.341 48, 33.854 49.522, 38.168 57.750" stroke="none" fill="#5fa819" fill-rule="evenodd"/></svg>